<svg width="246" height="92" viewBox="0 0 246 92" fill="none" xmlns="http://www.w3.org/2000/svg">
<path d="M35.072 86.496V92H0V86.496H35.072ZM70.197 86.496V92H35.125V86.496H70.197ZM177.642 86.496V92H149.098L140.138 71.648H95.338L86.378 92H57.834V86.496H72.682L109.674 2.52799H125.802L162.794 86.496H177.642ZM133.994 57.696L117.738 20.832L101.482 57.696H133.994ZM245.89 86.496V92H165.25V86.496H181.634C177.538 84.3627 173.783 81.7173 170.37 78.56L179.842 67.168C188.887 75.0187 198.274 78.944 208.002 78.944C212.866 78.944 216.706 77.92 219.522 75.872C222.423 73.7387 223.874 70.9653 223.874 67.552C223.874 64.0533 222.509 61.3653 219.778 59.488C217.133 57.5253 212.525 55.776 205.954 54.24C199.383 52.6187 194.391 51.168 190.978 49.888C187.565 48.5227 184.535 46.7733 181.89 44.64C176.599 40.6293 173.954 34.4853 173.954 26.208C173.954 17.9307 176.941 11.5733 182.914 7.13599C188.973 2.61333 196.439 0.351997 205.314 0.351997C211.031 0.351997 216.706 1.29066 222.338 3.168C227.97 5.04533 232.834 7.69066 236.93 11.104L228.866 22.496C226.221 20.1067 222.637 18.144 218.114 16.608C213.591 15.072 209.111 14.304 204.674 14.304C200.322 14.304 196.738 15.2 193.922 16.992C191.106 18.784 189.698 21.5147 189.698 25.184C189.698 28.768 191.106 31.5413 193.922 33.504C196.738 35.3813 202.711 37.4293 211.842 39.648C221.058 41.8667 227.97 44.9813 232.578 48.992C237.271 53.0027 239.618 58.6347 239.618 65.888C239.618 74.6773 236.375 81.5467 229.89 86.496H245.89Z" fill="white"/>
</svg>
